<svg width="100" height="26" xmlns="http://www.w3.org/2000/svg">
    <g>
        <title>background</title>
        <rect x="-1" y="-1" width="102" height="28" id="canvas_background" fill="none"/>
    </g>

    <g>
        <title>Layer 1</title>
        <g id="svg_1">
            <g id="svg_2">
                <g id="svg_11">
                    <path stroke-linecap="round" class="h-6 w-6" stroke-width="4" stroke-linejoin="round" fill="#0ecc5f" d="m66.22005,23.36364l6.81818,-20.54546m-6.81818,0l6.81818,20.54546" id="svg_13" stroke="#BE302D"/>
                    <g id="svg_3" stroke="null">
                        <g id="svg_14" stroke="null">
                            <path d="m9.08724,10.88902l-2.07941,-2.07941l7.97394,-7.97395l-10.41985,0c-2.04905,0 -3.71014,1.6611 -3.71014,3.71015l0,8.76451c1.23453,-0.56819 2.60728,-0.88729 4.05543,-0.88729c5.36548,0 9.71502,4.34953 9.71502,9.71502c0,0.96948 -0.14385,1.90507 -0.40825,2.78856l7.01848,0c2.04917,0 3.71027,-1.66109 3.71027,-3.71014l0,-3.57847l-11.3023,-11.30218l-4.55319,4.5532z" id="Fill-1" fill="#BE302D" mask="url(#mask-2)" stroke="null"/>
                        </g>
                        <g id="svg_15" stroke="null">
                            <path d="m21.2325,0.83563l-2.09185,0l-3.42076,3.42076l9.22275,9.22274l0,-8.93335c0,-2.04905 -1.66109,-3.71015 -3.71014,-3.71015" id="Fill-3" fill="#BE302D" mask="url(#mask-4)" stroke="null"/>
                        </g>
                        <g id="svg_16" stroke="null">
                            <path d="m1.62772,15.92105c-0.26151,0 -0.51976,0.01335 -0.77604,0.03364l0,5.26169c0,2.04918 1.6611,3.71027 3.71028,3.71027l6.75225,0c-0.36374,-5.03394 -4.55987,-9.0056 -9.68649,-9.0056" id="Fill-5" fill="#BE302D" mask="url(#mask-6)" stroke="null"/>
                        </g>
                    </g>
                    <g id="svg_10" stroke="null">
                        <g id="svg_5" stroke="null">
                            <path d="m83.58553,10.88902l-2.07942,-2.07941l7.97395,-7.97395l-10.41985,0c-2.04905,0 -3.71015,1.6611 -3.71015,3.71015l0,8.76451c1.23454,-0.56819 2.60729,-0.88729 4.05544,-0.88729c5.36548,0 9.71502,4.34953 9.71502,9.71502c0,0.96948 -0.14385,1.90507 -0.40825,2.78856l7.01848,0c2.04917,0 3.71027,-1.66109 3.71027,-3.71014l0,-3.57847l-11.3023,-11.30218l-4.55319,4.5532z" id="svg_4" fill="#BE302D" mask="url(#mask-2)" stroke="null"/>
                        </g>
                        <g id="svg_7" stroke="null">
                            <path d="m95.73079,0.83563l-2.09186,0l-3.42075,3.42076l9.22275,9.22274l0,-8.93335c0,-2.04905 -1.66109,-3.71015 -3.71014,-3.71015" id="svg_6" fill="#BE302D" mask="url(#mask-4)" stroke="null"/>
                        </g>
                        <g id="svg_9" stroke="null">
                            <path d="m76.12601,15.92105c-0.26152,0 -0.51976,0.01335 -0.77604,0.03364l0,5.26169c0,2.04918 1.6611,3.71027 3.71028,3.71027l6.75224,0c-0.36374,-5.03394 -4.55987,-9.0056 -9.68648,-9.0056" id="svg_8" fill="#BE302D" mask="url(#mask-6)" stroke="null"/>
                        </g>
                    </g>
                </g>
                <g transform="rotate(45 45.328609466552756,13.015000343322745) " id="svg_17">
                    <path fill="#999" d="m42.666606,5.034l0,2.128l7.012,0l-12.333,12.333l1.5,1.5l12.333,-12.332l0,7.012l2.128,0l0,-10.64l-10.64,-0.001z" id="svg_18"/>
                </g>
            </g>
        </g>
    </g>
</svg>
