<svg width="37" height="26.000000000000004" xmlns="http://www.w3.org/2000/svg">
    <g>
        <title>background</title>
        <rect fill="none" id="canvas_background" height="28" width="39" y="-1" x="-1"/>
    </g>

    <g>
        <title>Layer 1</title>
        <g id="svg_1">
            <g id="svg_2">
                <g id="svg_11">
                    <path stroke="#BE302D" id="svg_13" d="m2.63715,23.36364l6.81818,-20.54546m-6.81818,0l6.81818,20.54546" fill="#0ecc5f" stroke-linejoin="round" stroke-width="4" class="h-6 w-6" stroke-linecap="round"/>
                    <g stroke="null" id="svg_10">
                        <g stroke="null" id="svg_5">
                            <path stroke="null" mask="url(#mask-2)" fill="#BE302D" id="svg_4" d="m20.00264,10.88902l-2.07942,-2.07941l7.97395,-7.97395l-10.41985,0c-2.04905,0 -3.71015,1.6611 -3.71015,3.71015l0,8.76451c1.23454,-0.56819 2.60729,-0.88729 4.05544,-0.88729c5.36548,0 9.71502,4.34953 9.71502,9.71502c0,0.96948 -0.14385,1.90507 -0.40825,2.78856l7.01848,0c2.04917,0 3.71027,-1.66109 3.71027,-3.71014l0,-3.57847l-11.3023,-11.30218l-4.55319,4.5532z"/>
                        </g>
                        <g stroke="null" id="svg_7">
                            <path stroke="null" mask="url(#mask-4)" fill="#BE302D" id="svg_6" d="m32.1479,0.83563l-2.09186,0l-3.42075,3.42076l9.22275,9.22274l0,-8.93335c0,-2.04905 -1.66109,-3.71015 -3.71014,-3.71015"/>
                        </g>
                        <g stroke="null" id="svg_9">
                            <path stroke="null" mask="url(#mask-6)" fill="#BE302D" id="svg_8" d="m12.54312,15.92105c-0.26152,0 -0.51976,0.01335 -0.77604,0.03364l0,5.26169c0,2.04918 1.6611,3.71027 3.71028,3.71027l6.75224,0c-0.36374,-5.03394 -4.55987,-9.0056 -9.68648,-9.0056"/>
                        </g>
                    </g>
                </g>
            </g>
        </g>
    </g>
</svg>
