<svg width="107" height="25.999999999999996" xmlns="http://www.w3.org/2000/svg" class="h-6 w-6" xml:space="preserve" style="enable-background:new 0 0 107 26;" version="1.1">
 <style type="text/css">.st0{fill:#0ECC5F;}
	.st1{fill:#2B7A39;}
	.st2{fill:#999999;}
	.st3{fill:#2775CA;}</style>

    <g>
  <title>background</title>
        <rect fill="none" id="canvas_background" height="28" width="109" y="-1" x="-1"/>
 </g>
    <g>
  <title>Layer 1</title>
        <g id="svg_1">
   <g id="svg_2">
    <g stroke="null" id="svg_3">
     <g stroke="null" id="svg_4">
      <path stroke="null" mask="url(#mask-2)" fill="#BE302D" id="Fill-1" d="m90.120522,11.14586l-2.1097,-2.1097l8.09006,-8.09006l-10.57158,0c-2.07888,0 -3.76417,1.68528 -3.76417,3.76417l0,8.89214c1.25251,-0.57646 2.64525,-0.90021 4.11449,-0.90021c5.44361,0 9.85648,4.41287 9.85648,9.85648c0,0.98361 -0.14594,1.93282 -0.41419,2.82918l7.12068,0c2.07901,0 3.7643,-1.68529 3.7643,-3.76418l0,-3.63057l-11.46688,-11.46675l-4.61949,4.6195z"/>
     </g>
        <g stroke="null" id="svg_5">
      <path stroke="null" mask="url(#mask-4)" fill="#BE302D" id="Fill-3" d="m102.442632,0.94607l-2.12232,0l-3.47056,3.47057l9.35704,9.35704l0,-9.06343c0,-2.07889 -1.68528,-3.76418 -3.76416,-3.76418"/>
     </g>
        <g stroke="null" id="svg_6">
      <path stroke="null" mask="url(#mask-6)" fill="#BE302D" id="Fill-5" d="m82.552372,16.25115c-0.26532,0 -0.52732,0.01355 -0.78733,0.03413l0,5.33831c0,2.07902 1.68528,3.76431 3.76431,3.76431l6.85056,0c-0.36904,-5.10725 -4.62627,-9.13675 -9.82754,-9.13675"/>
     </g>
    </g>
       <g id="svg_7" transform="rotate(45 52.00999832153322,13.135481834411621) ">
     <path id="svg_8" d="m51.8,2.92048l0,2.1l7,0l-12.3,12.3l1.5,1.5l12.3,-12.3l0,7l2.1,0l0,-10.6l-10.6,0z" class="st2"/>
    </g>
   </g>
            <path id="svg_9" d="m13.153977,25.469725c6.93133,0 12.60241,-5.56606 12.60241,-12.60241s-5.56606,-12.60241 -12.60241,-12.60241s-12.60241,5.56607 -12.60241,12.60241s5.67109,12.60241 12.60241,12.60241z" class="st3" stroke="null"/>
            <g id="svg_11" transform="matrix(0.020346595355043504,0,0,0.020346595355043504,58.22357712598469,18.377830352306624) " stroke="null">
    <path fill="#fff" d="m-1894.546267,-133.63422a341.376,341.376 0 0 0 -484.01066,-428.8l-42.368,-74.112a426.496,426.496 0 0 1 425.04533,0.98133c191.57333,110.63467 264.96,347.43467 175.70133,544.85333l57.216,33.06667l-177.70666,94.464l-7.04,-201.13067l53.16266,30.67734zm-629.33333,-264.78934a341.376,341.376 0 0 0 484.05333,428.8l42.32534,74.112a426.496,426.496 0 0 1 -425.04534,-1.024c-191.57333,-110.63466 -264.96,-347.392 -175.65866,-544.85333l-57.25867,-32.98133l177.70667,-94.50667l7.04,201.13067l-53.12,-30.72l-0.04267,0.04266zm357.376,197.84534l128,0l0,85.33333l-128,0l0,85.33333l-85.33333,0l0,-85.33333l-128,0l0,-85.33333l128,0l0,-42.66667l-128,0l0,-85.33333l110.336,0l-90.53867,-90.45334l60.33067,-60.33066l90.496,90.496l90.53866,-90.496l60.33067,60.33066l-90.53867,90.496l110.336,0l0,85.33334l-128,0l0,42.66666l0.04267,-0.04266z" id="svg_13" stroke="null"/>
   </g>
  </g>
 </g>
</svg>
