<svg width="107" height="25.999999999999996" xmlns="http://www.w3.org/2000/svg" class="h-6 w-6" xml:space="preserve" style="enable-background:new 0 0 107 26;" version="1.1">
 <style type="text/css">.st0{fill:#0ECC5F;}
	.st1{fill:#2B7A39;}
	.st2{fill:#999999;}
	.st3{fill:#2775CA;}</style>

    <g>
  <title>background</title>
        <rect fill="none" id="canvas_background" height="5.661961" width="17.070378" y="-1" x="-1"/>
 </g>
    <g>
  <title>Layer 1</title>
        <g id="svg_1">
   <g id="svg_2">
    <g stroke="null" id="svg_3">
     <path stroke-linecap="round" class="h-6 w-6" stroke-width="4" stroke-linejoin="round" fill="#0ecc5f" d="m2.996371,23.36364l6.81818,-20.54546m-6.81818,0l6.81818,20.54546" id="svg_13" stroke="#BE302D"/>
        <g id="svg_10" stroke="null">
      <g id="svg_5" stroke="null">
       <path d="m20.361851,10.88902l-2.07942,-2.07941l7.97395,-7.97395l-10.41985,0c-2.04905,0 -3.71015,1.6611 -3.71015,3.71015l0,8.76451c1.23454,-0.56819 2.60729,-0.88729 4.05544,-0.88729c5.36548,0 9.71502,4.34953 9.71502,9.71502c0,0.96948 -0.14385,1.90507 -0.40825,2.78856l7.01848,0c2.04917,0 3.71027,-1.66109 3.71027,-3.71014l0,-3.57847l-11.3023,-11.30218l-4.55319,4.5532z" id="svg_4" fill="#BE302D" mask="url(#mask-2)" stroke="null"/>
      </g>
            <g id="svg_7" stroke="null">
       <path d="m32.507111,0.83563l-2.09186,0l-3.42075,3.42076l9.22275,9.22274l0,-8.93335c0,-2.04905 -1.66109,-3.71015 -3.71014,-3.71015" id="svg_6" fill="#BE302D" mask="url(#mask-4)" stroke="null"/>
      </g>
            <g id="svg_9" stroke="null">
       <path d="m12.902331,15.92105c-0.26152,0 -0.51976,0.01335 -0.77604,0.03364l0,5.26169c0,2.04918 1.6611,3.71027 3.71028,3.71027l6.75224,0c-0.36374,-5.03394 -4.55987,-9.0056 -9.68648,-9.0056" id="svg_8" fill="#BE302D" mask="url(#mask-6)" stroke="null"/>
      </g>
     </g>
    </g>
       <g transform="rotate(45 58.96644973754885,13.292848587036126) " stroke="null" id="svg_7">
     <path stroke="null" id="svg_8" d="m56.316449,5.342848l0,2.1l7,0l-12.3,12.3l1.5,1.5l12.3,-12.3l0,7l2.1,0l0,-10.6l-10.6,0z" class="st2"/>
    </g>
   </g>
            <path id="svg_9" d="m93.944324,25.62598c6.93133,0 12.60241,-5.56606 12.60241,-12.60242s-5.56606,-12.60241 -12.60241,-12.60241s-12.60241,5.56607 -12.60241,12.60241s5.67109,12.60242 12.60241,12.60242z" class="st3" stroke="null"/>
            <g id="svg_11" transform="matrix(0.020346595355043504,0,0,0.020346595355043504,58.22357712598469,18.377830352306624) " stroke="null">
    <path fill="#fff" d="m2079.98791,-133.63422a341.376,341.376 0 0 0 -484.01066,-428.8l-42.368,-74.112a426.496,426.496 0 0 1 425.04533,0.98133c191.57333,110.63467 264.96,347.43467 175.70133,544.85333l57.216,33.06667l-177.70666,94.464l-7.04,-201.13067l53.16266,30.67734zm-629.33333,-264.78934a341.376,341.376 0 0 0 484.05333,428.8l42.32534,74.112a426.496,426.496 0 0 1 -425.04534,-1.024c-191.57333,-110.63466 -264.96,-347.392 -175.65866,-544.85333l-57.25867,-32.98133l177.70667,-94.50667l7.04,201.13067l-53.12,-30.72l-0.04267,0.04266zm357.376,197.84534l128,0l0,85.33333l-128,0l0,85.33333l-85.33333,0l0,-85.33333l-128,0l0,-85.33333l128,0l0,-42.66667l-128,0l0,-85.33333l110.336,0l-90.53867,-90.45334l60.33067,-60.33066l90.496,90.496l90.53866,-90.496l60.33067,60.33066l-90.53867,90.496l110.336,0l0,85.33334l-128,0l0,42.66666l0.04267,-0.04266z" id="svg_13" stroke="null"/>
   </g>
  </g>
 </g>
</svg>
