<svg width="2000" height="2000" xmlns="http://www.w3.org/2000/svg" data-name="86977684-12db-4850-8f30-233a7c267d11">

    <g>
        <title>background</title>
        <rect fill="none" id="canvas_background" height="1038" width="1590" y="-1" x="-1"/>
    </g>
    <g>
        <title>Layer 1</title>
        <path id="svg_1" fill="#2775ca" d="m1000,2000c554.17,0 1000,-445.83 1000,-1000s-445.83,-1000 -1000,-1000s-1000,445.83 -1000,1000s445.83,1000 1000,1000z"/>
        <path stroke="null" id="svg_13" d="m1534.55794,1228.11928a586.171854,586.171854 0 0 0 -831.087792,-736.286356l-72.749488,-127.256657a732.330191,732.330191 0 0 1 729.839266,1.685028c328.947829,189.969212 454.959032,596.57511 301.694245,935.559872l98.244777,56.778307l-305.137568,162.202785l-12.088283,-345.358601l91.284844,52.675622zm-1080.619274,-454.665994a586.171854,586.171854 0 0 0 831.16106,736.286356l72.676237,127.256657a732.330191,732.330191 0 0 1 -729.839283,-1.758296c-328.947829,-189.969195 -454.959032,-596.501842 -301.620977,-935.559872l-98.318045,-56.631771l305.137585,-162.276053l12.088283,345.358601l-91.211593,-52.748873l-0.073268,0.073251zm613.645226,339.717408l219.786972,0l0,146.524642l-219.786972,0l0,146.524642l-146.524642,0l0,-146.524642l-219.786972,0l0,-146.524642l219.786972,0l0,-73.26233l-219.786972,0l0,-146.524642l189.45637,0l-155.462657,-155.316138l103.592932,-103.592915l155.389389,155.389389l155.46264,-155.389389l103.592932,103.592915l-155.462657,155.389389l189.45637,0l0,146.524659l-219.786972,0l0,73.262313l0.073268,-0.073251z" fill="#fff"/>
    </g>
</svg>
