<svg width="100.00000000000001" height="26.000000000000004" xmlns="http://www.w3.org/2000/svg">
    <g>
        <title>background</title>
        <rect x="-1" y="-1" width="18.393443" height="6.262295" id="canvas_background" fill="none"/>
    </g>

    <g>
        <title>Layer 1</title>
        <g id="svg_1">
            <g id="svg_2">
                <g id="svg_11">
                    <path stroke-linecap="round" class="h-6 w-6" stroke-width="4" stroke-linejoin="round" fill="#0ecc5f" d="m2.63715,23.363636l6.818182,-20.545455m-6.818182,0l6.818182,20.545455" id="svg_13" stroke="#BE302D"/>
                    <g id="svg_3" stroke="null">
                        <g id="svg_14" stroke="null">
                            <path d="m83.219041,10.889022l-2.079418,-2.079411l7.973946,-7.973952l-10.419847,0c-2.04905,0 -3.710148,1.661098 -3.710148,3.710148l0,8.76451c1.234534,-0.568185 2.607284,-0.88729 4.055431,-0.88729c5.365484,0 9.715019,4.349535 9.715019,9.715019c0,0.969487 -0.14385,1.905073 -0.408241,2.788568l7.018472,0c2.049177,0 3.710275,-1.661098 3.710275,-3.710148l0,-3.578471l-11.302299,-11.302171l-4.553191,4.553197l0.000001,0.000001z" id="Fill-1" fill="#BE302D" mask="url(#mask-2)" stroke="null"/>
                        </g>
                        <g id="svg_15" stroke="null">
                            <path d="m95.364296,0.835632l-2.091851,0l-3.420755,3.420755l9.222747,9.222747l0,-8.933355c0,-2.04905 -1.661091,-3.710148 -3.710141,-3.710148" id="Fill-3" fill="#BE302D" mask="url(#mask-4)" stroke="null"/>
                        </g>
                        <g id="svg_16" stroke="null">
                            <path d="m75.759518,15.921047c-0.261514,0 -0.519756,0.01335 -0.776037,0.03364l0,5.261692c0,2.049177 1.661098,3.710275 3.710282,3.710275l6.75224,0c-0.36374,-5.033946 -4.559869,-9.005607 -9.686485,-9.005607" id="Fill-5" fill="#BE302D" mask="url(#mask-6)" stroke="null"/>
                        </g>
                    </g>
                    <g id="svg_10" stroke="null">
                        <g id="svg_5" stroke="null">
                            <path d="m20.002636,10.88902l-2.07942,-2.07941l7.97395,-7.97395l-10.41985,0c-2.04905,0 -3.71015,1.6611 -3.71015,3.71015l0,8.76451c1.23454,-0.56819 2.60729,-0.88729 4.05544,-0.88729c5.36548,0 9.71502,4.34953 9.71502,9.71502c0,0.96948 -0.14385,1.90507 -0.40825,2.78856l7.01848,0c2.04917,0 3.71027,-1.66109 3.71027,-3.71014l0,-3.57847l-11.3023,-11.30218l-4.55319,4.5532z" id="svg_4" fill="#BE302D" mask="url(#mask-2)" stroke="null"/>
                        </g>
                        <g id="svg_7" stroke="null">
                            <path d="m32.147896,0.83563l-2.09186,0l-3.42075,3.42076l9.22275,9.22274l0,-8.93335c0,-2.04905 -1.66109,-3.71015 -3.71014,-3.71015" id="svg_6" fill="#BE302D" mask="url(#mask-4)" stroke="null"/>
                        </g>
                        <g id="svg_9" stroke="null">
                            <path d="m12.543116,15.92105c-0.26152,0 -0.51976,0.01335 -0.77604,0.03364l0,5.26169c0,2.04918 1.6611,3.71027 3.71028,3.71027l6.75224,0c-0.36374,-5.03394 -4.55987,-9.0056 -9.68648,-9.0056" id="svg_8" fill="#BE302D" mask="url(#mask-6)" stroke="null"/>
                        </g>
                    </g>
                </g>
                <g transform="rotate(45 54.22695922851562,13.015000343322756) " id="svg_17">
                    <path fill="#999" d="m51.564962,5.034l0,2.128l7.012,0l-12.333,12.333l1.5,1.5l12.333,-12.332l0,7.012l2.128,0l0,-10.64l-10.64,-0.001z" id="svg_18"/>
                </g>
            </g>
        </g>
    </g>
</svg>
